<mxfile host="app.diagrams.net" modified="2024-01-16T02:24:14.633Z" agent="Mozilla/5.0 (Windows NT 10.0; Win64; x64) AppleWebKit/537.36 (KHTML, like Gecko) Chrome/120.0.0.0 Safari/537.36" etag="vM1EKuI68DHafP_6Fz8q" version="22.1.18" type="device">
  <diagram name="第 1 页" id="hdgmW6dwd27aeyHY5_qw">
    <mxGraphModel dx="1407" dy="707" grid="1" gridSize="10" guides="1" tooltips="1" connect="1" arrows="1" fold="1" page="1" pageScale="1" pageWidth="827" pageHeight="1169" math="0" shadow="0">
      <root>
        <mxCell id="0" />
        <mxCell id="1" parent="0" />
        <mxCell id="YIzeevluQIeyz64TUtle-1" value="ponude knjiga" style="shape=umlFrame;whiteSpace=wrap;html=1;pointerEvents=0;width=100;height=30;" vertex="1" parent="1">
          <mxGeometry x="50" y="90" width="890" height="620" as="geometry" />
        </mxCell>
        <mxCell id="YIzeevluQIeyz64TUtle-8" value="" style="edgeStyle=orthogonalEdgeStyle;rounded=0;orthogonalLoop=1;jettySize=auto;html=1;" edge="1" parent="1" source="YIzeevluQIeyz64TUtle-2">
          <mxGeometry relative="1" as="geometry">
            <mxPoint x="190" y="245" as="targetPoint" />
          </mxGeometry>
        </mxCell>
        <mxCell id="YIzeevluQIeyz64TUtle-2" value="" style="ellipse;html=1;shape=startState;fillColor=#000000;strokeColor=#ff0000;" vertex="1" parent="1">
          <mxGeometry x="80" y="230" width="30" height="30" as="geometry" />
        </mxCell>
        <mxCell id="YIzeevluQIeyz64TUtle-40" value="" style="edgeStyle=orthogonalEdgeStyle;rounded=0;orthogonalLoop=1;jettySize=auto;html=1;entryX=0.5;entryY=0;entryDx=0;entryDy=0;" edge="1" parent="1" source="YIzeevluQIeyz64TUtle-9" target="YIzeevluQIeyz64TUtle-41">
          <mxGeometry relative="1" as="geometry">
            <mxPoint x="545" y="620" as="targetPoint" />
          </mxGeometry>
        </mxCell>
        <mxCell id="YIzeevluQIeyz64TUtle-9" value="&lt;p style=&quot;margin:0px;margin-top:4px;text-align:center;&quot;&gt;&lt;b&gt;U pretragu&lt;/b&gt;&lt;/p&gt;&lt;hr size=&quot;1&quot;&gt;&lt;div style=&quot;height:2px;&quot;&gt;&lt;/div&gt;" style="verticalAlign=top;align=left;overflow=fill;fontSize=12;fontFamily=Helvetica;html=1;whiteSpace=wrap;" vertex="1" parent="1">
          <mxGeometry x="200" y="210" width="690" height="340" as="geometry" />
        </mxCell>
        <mxCell id="YIzeevluQIeyz64TUtle-10" value="entry/status=&quot;U pretragu&quot;" style="text;html=1;strokeColor=none;fillColor=none;align=center;verticalAlign=middle;whiteSpace=wrap;rounded=0;" vertex="1" parent="1">
          <mxGeometry x="210" y="240" width="170" height="20" as="geometry" />
        </mxCell>
        <mxCell id="YIzeevluQIeyz64TUtle-14" value="" style="edgeStyle=orthogonalEdgeStyle;rounded=0;orthogonalLoop=1;jettySize=auto;html=1;" edge="1" parent="1" source="YIzeevluQIeyz64TUtle-11">
          <mxGeometry relative="1" as="geometry">
            <mxPoint x="295" y="305" as="targetPoint" />
          </mxGeometry>
        </mxCell>
        <mxCell id="YIzeevluQIeyz64TUtle-11" value="" style="ellipse;html=1;shape=startState;fillColor=#000000;strokeColor=#ff0000;" vertex="1" parent="1">
          <mxGeometry x="230" y="290" width="30" height="30" as="geometry" />
        </mxCell>
        <mxCell id="YIzeevluQIeyz64TUtle-38" value="" style="edgeStyle=orthogonalEdgeStyle;rounded=0;orthogonalLoop=1;jettySize=auto;html=1;" edge="1" parent="1" source="YIzeevluQIeyz64TUtle-15" target="YIzeevluQIeyz64TUtle-36">
          <mxGeometry relative="1" as="geometry">
            <Array as="points">
              <mxPoint x="480" y="390" />
              <mxPoint x="480" y="390" />
            </Array>
          </mxGeometry>
        </mxCell>
        <mxCell id="YIzeevluQIeyz64TUtle-15" value="&lt;p style=&quot;margin:0px;margin-top:4px;text-align:center;&quot;&gt;&lt;b&gt;Započeta&lt;/b&gt;&lt;/p&gt;&lt;hr size=&quot;1&quot;&gt;&lt;div style=&quot;height:2px;&quot;&gt;&amp;nbsp;do/ unos značajke knjige i nazivu ponuditelja&lt;/div&gt;" style="verticalAlign=top;align=left;overflow=fill;fontSize=12;fontFamily=Helvetica;html=1;whiteSpace=wrap;" vertex="1" parent="1">
          <mxGeometry x="310" y="275" width="260" height="65" as="geometry" />
        </mxCell>
        <mxCell id="YIzeevluQIeyz64TUtle-30" value="provjera [ knjiga ima dostupnih registriranih ponuditelja i&amp;nbsp;podudaranje pojmova za pretraživanje ] / prikazuje prilikom pretrage u sustavu" style="text;html=1;strokeColor=none;fillColor=none;align=center;verticalAlign=middle;whiteSpace=wrap;rounded=0;" vertex="1" parent="1">
          <mxGeometry x="480" y="365" width="380" height="45" as="geometry" />
        </mxCell>
        <mxCell id="YIzeevluQIeyz64TUtle-45" value="" style="edgeStyle=orthogonalEdgeStyle;rounded=0;orthogonalLoop=1;jettySize=auto;html=1;" edge="1" parent="1" source="YIzeevluQIeyz64TUtle-36" target="YIzeevluQIeyz64TUtle-15">
          <mxGeometry relative="1" as="geometry">
            <Array as="points">
              <mxPoint x="390" y="390" />
              <mxPoint x="390" y="390" />
            </Array>
          </mxGeometry>
        </mxCell>
        <mxCell id="YIzeevluQIeyz64TUtle-36" value="&lt;p style=&quot;margin:0px;margin-top:4px;text-align:center;&quot;&gt;&lt;b&gt;Rezultat&lt;/b&gt;&lt;/p&gt;&lt;hr size=&quot;1&quot;&gt;&lt;div style=&quot;height:2px;&quot;&gt;&amp;nbsp;do/ prikaz sve knjige koje se pretražuje&lt;/div&gt;" style="verticalAlign=top;align=left;overflow=fill;fontSize=12;fontFamily=Helvetica;html=1;whiteSpace=wrap;" vertex="1" parent="1">
          <mxGeometry x="305" y="430" width="270" height="90" as="geometry" />
        </mxCell>
        <mxCell id="YIzeevluQIeyz64TUtle-41" value="" style="ellipse;html=1;shape=endState;fillColor=#000000;strokeColor=#ff0000;" vertex="1" parent="1">
          <mxGeometry x="530" y="630" width="30" height="30" as="geometry" />
        </mxCell>
        <mxCell id="YIzeevluQIeyz64TUtle-43" value="korisnik odustaje" style="text;html=1;strokeColor=none;fillColor=none;align=center;verticalAlign=middle;whiteSpace=wrap;rounded=0;" vertex="1" parent="1">
          <mxGeometry x="550" y="585" width="70" height="30" as="geometry" />
        </mxCell>
      </root>
    </mxGraphModel>
  </diagram>
</mxfile>
